<svg width="20" height="22" viewBox="0 0 20 22" fill="none" xmlns="http://www.w3.org/2000/svg">
<path fill-rule="evenodd" clip-rule="evenodd" d="M13.0001 2.51336e-08C13.9353 -9.37363e-05 14.8519 0.262149 15.6456 0.756932C16.4393 1.25172 17.0783 1.9592 17.4901 2.799L17.5841 3H19.0001C19.1695 2.99999 19.3361 3.04302 19.4843 3.12504C19.6325 3.20707 19.7575 3.3254 19.8474 3.46894C19.9374 3.61248 19.9894 3.77652 19.9986 3.94568C20.0078 4.11483 19.9739 4.28355 19.9001 4.436L19.8321 4.555L18.2801 6.882C18.161 7.06092 18.1028 7.27341 18.1141 7.488L18.1281 7.616L18.2691 8.39C19.2581 13.828 15.1611 18.841 9.67605 18.996L9.41405 19H1.00005C0.830651 19 0.664023 18.957 0.515802 18.875C0.367582 18.7929 0.242628 18.6746 0.152665 18.5311C0.0627026 18.3875 0.0106794 18.2235 0.00147682 18.0543C-0.00772578 17.8852 0.0261938 17.7165 0.100053 17.564L0.168053 17.445L7.61305 6.277C7.86541 5.89893 8.00008 5.45456 8.00005 5C8.00005 3.67392 8.52684 2.40215 9.46452 1.46447C10.4022 0.526784 11.674 2.51336e-08 13.0001 2.51336e-08ZM9.50005 9C9.22905 9 8.83705 9.07 8.46405 9.209C8.08905 9.349 7.88205 9.504 7.81005 9.587L4.42605 14.664C5.42405 14.377 6.49105 14.061 7.48905 13.67C8.55605 13.253 9.46705 12.778 10.0981 12.224C10.7101 11.687 11.0001 11.132 11.0001 10.5C11.0001 10.1022 10.842 9.72064 10.5607 9.43934C10.2794 9.15804 9.89788 9 9.50005 9ZM13.0001 4C12.7348 4 12.4805 4.10536 12.2929 4.29289C12.1054 4.48043 12.0001 4.73478 12.0001 5C12.0001 5.26522 12.1054 5.51957 12.2929 5.70711C12.4805 5.89464 12.7348 6 13.0001 6C13.2653 6 13.5196 5.89464 13.7072 5.70711C13.8947 5.51957 14.0001 5.26522 14.0001 5C14.0001 4.73478 13.8947 4.48043 13.7072 4.29289C13.5196 4.10536 13.2653 4 13.0001 4Z" fill="black"/>
</svg>
