<svg width="14" height="14" viewBox="0 0 14 14" fill="none" xmlns="http://www.w3.org/2000/svg">
<path fill-rule="evenodd" clip-rule="evenodd" d="M0.470011 0.470011C0.610637 0.329561 0.801261 0.250671 1.00001 0.250671C1.19876 0.250671 1.38939 0.329561 1.53001 0.470011L13.53 12.47C13.6037 12.5387 13.6628 12.6215 13.7038 12.7135C13.7448 12.8055 13.7668 12.9048 13.7686 13.0055C13.7704 13.1062 13.7519 13.2062 13.7141 13.2996C13.6764 13.393 13.6203 13.4778 13.549 13.549C13.4778 13.6203 13.393 13.6764 13.2996 13.7141C13.2062 13.7519 13.1062 13.7704 13.0055 13.7686C12.9048 13.7668 12.8055 13.7448 12.7135 13.7038C12.6215 13.6628 12.5387 13.6037 12.47 13.53L0.470011 1.53001C0.329561 1.38939 0.250671 1.19876 0.250671 1.00001C0.250671 0.801261 0.329561 0.610637 0.470011 0.470011Z" fill="black"/>
<path fill-rule="evenodd" clip-rule="evenodd" d="M13.53 0.470011C13.6705 0.610637 13.7494 0.801261 13.7494 1.00001C13.7494 1.19876 13.6705 1.38939 13.53 1.53001L1.53003 13.53C1.38785 13.6625 1.19981 13.7346 1.00551 13.7312C0.811206 13.7278 0.625821 13.649 0.488408 13.5116C0.350995 13.3742 0.272283 13.1888 0.268855 12.9945C0.265426 12.8002 0.337549 12.6122 0.470029 12.47L12.47 0.470011C12.6107 0.329561 12.8013 0.250671 13 0.250671C13.1988 0.250671 13.3894 0.329561 13.53 0.470011Z" fill="black"/>
</svg>
