<svg width="594" height="538" viewBox="0 0 594 538" fill="none" xmlns="http://www.w3.org/2000/svg">
<path d="M564.58 412.333C562.681 415.777 559.142 418.268 554.047 419.813C548.949 421.359 542.337 421.943 534.376 421.6C518.455 420.913 497.254 416.524 472.239 408.868C422.219 393.558 357.057 365.216 288.618 327.465C220.178 289.715 161.445 249.717 121.812 215.575C101.993 198.501 86.9708 182.909 77.8972 169.81C73.3598 163.259 70.3264 157.355 68.9146 152.218C67.5034 147.084 67.7231 142.762 69.6226 139.319C71.5222 135.875 75.0605 133.384 80.1559 131.839C85.2536 130.293 91.8657 129.709 99.827 130.052C115.747 130.739 136.949 135.128 161.963 142.784C211.984 158.094 277.146 186.436 345.585 224.187C414.025 261.937 472.758 301.934 512.39 336.077C532.21 353.15 547.232 368.742 556.306 381.842C560.843 388.393 563.876 394.297 565.288 399.434C566.699 404.568 566.48 408.889 564.58 412.333Z" stroke="black"/>
<path d="M544.35 449.007C542.45 452.451 538.912 454.942 533.817 456.487C528.719 458.033 522.107 458.617 514.145 458.273C498.225 457.587 477.023 453.198 452.009 445.542C401.988 430.232 336.827 401.89 268.387 364.139C199.948 326.388 141.215 286.391 101.582 252.249C81.7624 235.175 66.7403 219.583 57.6667 206.483C53.1293 199.933 50.0959 194.029 48.6841 188.892C47.2729 183.758 47.4926 179.436 49.3922 175.992C51.2918 172.549 54.83 170.057 59.9254 168.512C65.0232 166.967 71.6352 166.383 79.5965 166.726C95.517 167.413 116.719 171.802 141.733 179.458C191.753 194.767 256.915 223.11 325.355 260.86C393.794 298.611 452.527 338.608 492.16 372.75C511.979 389.824 527.002 405.416 536.075 418.516C540.613 425.067 543.646 430.971 545.058 436.107C546.469 441.241 546.249 445.563 544.35 449.007Z" stroke="black"/>
<path d="M524.121 485.681C522.222 489.125 518.683 491.616 513.588 493.161C508.49 494.707 501.878 495.291 493.917 494.948C477.996 494.261 456.795 489.872 431.78 482.216C381.76 466.906 316.598 438.564 248.159 400.813C179.719 363.063 120.986 323.066 81.3534 288.923C61.5339 271.85 46.5118 256.258 37.4382 243.158C32.9008 236.607 29.8674 230.703 28.4556 225.566C27.0444 220.432 27.2641 216.111 29.1637 212.667C31.0632 209.223 34.6015 206.732 39.6969 205.187C44.7946 203.641 51.4067 203.057 59.368 203.4C75.2885 204.087 96.4902 208.476 121.504 216.132C171.525 231.442 236.687 259.784 305.126 297.535C373.566 335.285 432.299 375.283 471.931 409.425C491.751 426.499 506.773 442.091 515.847 455.19C520.384 461.741 523.417 467.645 524.829 472.782C526.24 477.916 526.021 482.237 524.121 485.681Z" stroke="black"/>
<circle cx="131.5" cy="127.5" r="15.5" fill="#B9FF66"/>
<circle cx="131.5" cy="127.5" r="15.5" fill="#B9FF66"/>
<circle cx="421" cy="458" r="10" fill="#B9FF66"/>
<circle cx="81.5" cy="87.5" r="23.5" fill="black"/>
<path fill-rule="evenodd" clip-rule="evenodd" d="M264.754 288.33C262.282 288.773 258.574 289.438 254.359 290.832C231.712 297.574 211.181 311.845 198.274 331.638C195.681 335.675 193.482 339.769 191.675 343.921C178.953 356.919 175.205 374.431 180.374 396.85C181.926 405.502 181.349 412.239 178.306 416.612C172.627 419.8 168.321 435.626 168.321 435.626C172.365 435.411 172.842 423.844 178.135 417.791C182.363 410.782 182.269 403.144 179.652 393.535C176.763 380.275 178.11 357.198 190.718 344.985C191.168 344.65 191.503 345.1 191.446 345.493C188.7 367.163 192.607 401.034 207.486 425.666C216.162 437.761 224.623 445.811 216.388 461.066L216.331 461.459C217.997 469.325 223.485 475.74 233.131 481.154C233.524 481.211 233.917 481.268 233.974 480.875C235.61 477.903 236.516 474.423 236.244 470.772L236.301 470.379C251.287 450.086 253.406 432.738 248.287 412.734C248.344 412.341 248.401 411.948 248.794 412.006C263.441 416.14 274.615 416.559 288.389 410.134C288.782 410.191 289.175 410.248 289.118 410.641C295.587 429.637 291.517 441.083 283.409 449.937C281.666 450.888 279.587 451.388 277.508 451.889C277.115 451.832 277.058 452.224 277.058 452.224C275.745 461.263 276.961 469.464 281.099 476.887C281.042 477.28 281.435 477.337 281.885 477.001C285.314 475.493 287.736 472.635 289.035 469.212C289.035 469.212 289.092 468.819 289.485 468.876C310.561 461.907 324.982 442.735 338.583 390.541C345.995 367.141 362.647 354.714 388.596 352.866C394.154 353.272 399.32 353.621 403.978 354.699C404.371 354.756 404.821 354.42 404.485 353.97C404.435 351.556 403.149 349.362 400.683 346.998C400.347 346.548 400.462 345.762 401.19 346.269C420.775 352.324 438.414 349.67 454.388 339.151C457.259 335.956 457.038 334.72 452.994 334.936C436.191 340.118 420.751 338.678 406.618 331.007C406.282 330.557 406.396 329.771 407.182 329.885C437.383 334.674 455.378 324.047 460.439 297.497C461.087 284.75 454.826 272.606 441.599 261.455C429.209 252.834 421.699 246.527 427.499 239.746C427.499 239.746 427.499 239.746 427.556 239.353C429.091 231.55 426.74 228.4 419.216 227.708C419.216 227.708 418.823 227.651 418.766 228.044C403.73 245.923 416.671 259.038 429.226 269.288C446.826 283.481 444.6 298.807 435.377 304.288C417.096 316.881 396.12 281.733 376.65 274.892C357.573 268.108 335.661 272.549 321.576 292.17L321.125 292.506C315.624 291.707 293.682 285.309 264.754 288.33Z" fill="white" stroke="#050505" stroke-width="1.51" stroke-miterlimit="10" stroke-linecap="round" stroke-linejoin="round"/>
<path d="M404.636 101.603C410.344 62.3071 368.656 23.348 311.283 15.0135C253.91 6.67903 203.253 32.223 197.544 71.5193C196.802 76.6278 196.846 81.8505 197.733 86.7944C198.869 128.69 261.063 211.556 261.063 211.556L304.682 217.893C304.682 217.893 385.862 156.256 400.559 115.858C402.423 111.313 403.893 106.712 404.636 101.603Z" fill="white"/>
<path d="M404.636 101.603C410.344 62.3071 368.656 23.348 311.283 15.0135C253.91 6.67903 203.253 32.223 197.544 71.5193C196.802 76.6278 196.846 81.8505 197.733 86.7944C198.869 128.69 261.063 211.556 261.063 211.556L304.682 217.893C304.682 217.893 385.862 156.256 400.559 115.858C402.423 111.313 403.893 106.712 404.636 101.603Z" fill="#B9FF66"/>
<path d="M404.636 101.603C410.344 62.3071 368.656 23.348 311.283 15.0135C253.91 6.67903 203.253 32.223 197.544 71.5193C196.802 76.6278 196.846 81.8505 197.733 86.7944C198.869 128.69 261.063 211.556 261.063 211.556L304.682 217.893C304.682 217.893 385.862 156.256 400.559 115.858C402.423 111.313 403.893 106.712 404.636 101.603Z" stroke="#050505" stroke-width="1.51" stroke-miterlimit="10" stroke-linecap="round" stroke-linejoin="round"/>
<path d="M254 200.5L262 212.5L305 217L313 209" stroke="black"/>
<path d="M261.535 224.865L275.062 275.382" stroke="#050505" stroke-width="1.51" stroke-miterlimit="10" stroke-linecap="round" stroke-linejoin="round"/>
<path d="M303.188 230.917L275.789 275.89" stroke="#050505" stroke-width="1.51" stroke-miterlimit="10" stroke-linecap="round" stroke-linejoin="round"/>
<path d="M273.438 225.793L275.79 275.89" stroke="#050505" stroke-width="1.51" stroke-miterlimit="10" stroke-linecap="round" stroke-linejoin="round"/>
<path d="M290.337 228.246L275.792 275.889" stroke="#050505" stroke-width="1.51" stroke-miterlimit="10" stroke-linecap="round" stroke-linejoin="round"/>
<g clip-path="url(#clip0_920_287)">
<path d="M350.999 473.535L368.6 468.349L363.464 486L368.6 503.601L350.999 498.465L333.348 503.601L338.533 486L333.348 468.349L350.999 473.535Z" fill="black" stroke="white" stroke-miterlimit="10"/>
</g>
<g clip-path="url(#clip1_920_287)">
<path d="M350.999 473.535L368.6 468.349L363.464 486L368.6 503.601L350.999 498.465L333.348 503.601L338.533 486L333.348 468.349L350.999 473.535Z" fill="black" stroke="white" stroke-miterlimit="10"/>
</g>
<path d="M85.9141 353.545L117.39 370.695L85.9141 387.982L68.6953 419.39L51.4765 387.982L20.0005 370.695L51.4765 353.545L68.6953 322L85.9141 353.545Z" fill="black" stroke="white" stroke-miterlimit="10"/>
<path d="M261.792 84.8696L286.463 88.2792L290.117 61.8372C290.293 60.5621 290.935 59.4046 291.901 58.6192C292.867 57.8339 294.078 57.485 295.267 57.6495L313.21 60.1292C314.399 60.2936 315.47 60.9578 316.187 61.9756C316.904 62.9935 317.207 64.2817 317.031 65.5567L313.377 91.9988L338.048 95.4084C339.237 95.5728 340.308 96.237 341.025 97.2548C341.741 98.2727 342.045 99.5609 341.869 100.836L339.211 120.066C339.035 121.342 338.393 122.499 337.427 123.284C336.462 124.07 335.251 124.419 334.061 124.254L309.39 120.845L305.736 147.287C305.559 148.562 304.918 149.719 303.952 150.505C302.986 151.29 301.775 151.639 300.586 151.474L282.643 148.995C281.453 148.83 280.382 148.166 279.666 147.148C278.949 146.13 278.646 144.842 278.822 143.567L282.476 117.125L257.805 113.715C256.616 113.551 255.545 112.887 254.828 111.869C254.111 110.851 253.808 109.563 253.984 108.288L256.642 89.0573C256.818 87.7822 257.46 86.6247 258.425 85.8394C259.391 85.054 260.602 84.7052 261.792 84.8696Z" fill="white" stroke="black" stroke-linecap="round" stroke-linejoin="round"/>
<path d="M541.323 253.677C554.204 266.558 554.204 287.442 541.323 300.323C528.442 313.204 507.558 313.204 494.677 300.323C481.796 287.442 481.796 266.558 494.677 253.677C507.558 240.796 528.442 240.796 541.323 253.677Z" fill="#B9FF66" stroke="black" stroke-width="0.5"/>
<path d="M460.25 181.25C471.158 170.342 471.158 152.658 460.25 141.75C449.342 130.842 431.658 130.842 420.75 141.75C409.842 152.658 409.842 170.342 420.75 181.25C431.658 192.158 449.342 192.158 460.25 181.25Z" fill="black"/>
<defs>
<clipPath id="clip0_920_287">
<rect width="36" height="36" fill="white" transform="translate(333 468)"/>
</clipPath>
<clipPath id="clip1_920_287">
<rect width="36" height="36" fill="white" transform="translate(333 468)"/>
</clipPath>
</defs>
</svg>
