<svg width="100" height="85" viewBox="0 0 100 85" fill="none" xmlns="http://www.w3.org/2000/svg">
<path fill-rule="evenodd" clip-rule="evenodd" d="M18.8213 47.2399C18.4158 47.3393 17.8076 47.4885 17.1229 47.7638C13.4363 49.1192 10.1795 51.7016 8.2453 55.1203C7.8574 55.8172 7.53528 56.5194 7.27896 57.2271C5.30432 59.5166 4.86577 62.4611 5.95796 66.1263C6.30594 67.5454 6.28062 68.6692 5.82156 69.4265C4.9127 70.0147 4.36401 72.6853 4.36401 72.6853C5.03263 72.6074 4.99068 70.6834 5.80549 69.6239C6.43364 68.4167 6.3381 67.1507 5.80346 65.5839C5.18548 63.4143 5.16738 59.5717 7.1313 57.4137C7.20245 57.3533 7.26288 57.4244 7.25752 57.4902C7.02854 61.114 8.03109 66.6925 10.7573 70.6233C12.3231 72.539 13.811 73.7861 12.6044 76.4031L12.599 76.4688C12.9577 77.7564 13.9354 78.7632 15.5923 79.5604C15.6581 79.5658 15.7239 79.5712 15.7292 79.5054C15.9695 78.9951 16.0835 78.4084 16.0002 77.8055L16.0055 77.7398C18.2794 74.2163 18.4494 71.3162 17.3908 68.051C17.3962 67.9853 17.4016 67.9195 17.4674 67.9248C19.9406 68.4574 21.7988 68.4101 24.0166 67.2C24.0824 67.2054 24.1482 67.2108 24.1428 67.2765C25.4148 70.3604 24.8593 72.3019 23.6069 73.8556C23.3277 74.0315 22.988 74.1363 22.6483 74.2411C22.5825 74.2357 22.5772 74.3015 22.5772 74.3015C22.4539 75.8147 22.7415 77.1626 23.5056 78.3507C23.5003 78.4165 23.566 78.4219 23.6372 78.3614C24.1903 78.0754 24.5621 77.5759 24.742 76.9945C24.742 76.9945 24.7473 76.9287 24.8131 76.934C28.2366 75.5572 30.4286 72.2258 32.1389 63.4245C33.1238 59.4649 35.7563 57.229 40.0419 56.6509C40.9683 56.6602 41.829 56.664 42.6131 56.7941C42.6789 56.7995 42.75 56.7391 42.6896 56.6679C42.656 56.2678 42.4196 55.9174 41.9859 55.551C41.9254 55.4798 41.9362 55.3482 42.0624 55.4247C45.3748 56.2244 48.2735 55.5996 50.8134 53.6872C51.2564 53.1273 51.2067 52.9246 50.538 53.0025C47.8046 54.0382 45.2281 53.9607 42.8031 52.836C42.7426 52.7649 42.7534 52.6333 42.8849 52.644C47.9454 53.1225 50.8197 51.1711 51.3815 46.7135C51.3556 44.5921 50.1899 42.6428 47.8789 40.9313C45.7332 39.6307 44.4213 38.6629 45.3126 37.4772C45.3126 37.4772 45.3126 37.4772 45.3179 37.4114C45.4909 36.1009 45.0679 35.6029 43.8125 35.5668C43.8125 35.5668 43.7467 35.5615 43.7414 35.6273C41.4339 38.7506 43.7181 40.7911 45.9082 42.3602C48.9765 44.5308 48.7675 47.0966 47.2947 48.1025C44.3937 50.3827 40.5461 44.7712 37.2444 43.8399C34.0085 42.9141 30.4198 43.88 28.2882 47.2826L28.2171 47.3431C27.296 47.268 23.5888 46.4362 18.8213 47.2399Z" stroke="#050505" stroke-width="1.51" stroke-miterlimit="10" stroke-linecap="round" stroke-linejoin="round"/>
<path d="M40.0737 14.7982C40.6097 8.21923 33.2859 2.19202 23.6806 1.40954C14.0752 0.627057 5.93827 5.39479 5.40232 11.9738C5.33265 12.8291 5.39456 13.6951 5.59341 14.506C6.22024 21.4446 17.4053 34.5415 17.4053 34.5415L24.708 35.1364C24.708 35.1364 37.531 24.0615 39.5465 17.2057C39.8082 16.4323 40.0041 15.6535 40.0737 14.7982Z" stroke="#050505" stroke-width="1.51" stroke-miterlimit="10" stroke-linecap="round" stroke-linejoin="round"/>
<path d="M17.6231 36.7448L20.3957 44.9841" stroke="#050505" stroke-miterlimit="10" stroke-linecap="round" stroke-linejoin="round"/>
<path d="M24.5969 37.3129L20.522 45.0606" stroke="#050505" stroke-miterlimit="10" stroke-linecap="round" stroke-linejoin="round"/>
<path d="M19.6075 36.7739L20.5219 45.0605" stroke="#050505" stroke-miterlimit="10" stroke-linecap="round" stroke-linejoin="round"/>
<path d="M22.4366 37.0044L20.522 45.0606" stroke="#050505" stroke-miterlimit="10" stroke-linecap="round" stroke-linejoin="round"/>
<path d="M32.656 78.792C32.368 78.632 32.208 78.456 32.176 78.264C32.16 78.072 32.272 77.736 32.512 77.256C32.752 76.776 33.128 76.032 33.64 75.024C34.024 74.304 34.312 73.744 34.504 73.344C34.712 72.928 34.848 72.632 34.912 72.456C34.992 72.28 35.032 72.168 35.032 72.12C35 71.976 35.016 71.864 35.08 71.784C35.144 71.688 35.248 71.608 35.392 71.544C35.472 71.464 35.6 71.32 35.776 71.112C35.968 70.904 36.144 70.656 36.304 70.368C36.448 70.032 36.616 69.688 36.808 69.336C37 68.984 37.256 68.544 37.576 68.016C37.896 67.472 38.312 66.768 38.824 65.904C39.144 65.344 39.496 64.776 39.88 64.2C40.264 63.608 40.672 63.024 41.104 62.448C41.28 62.224 41.44 62.048 41.584 61.92C41.728 61.776 41.872 61.712 42.016 61.728C42.208 61.728 42.424 61.792 42.664 61.92C42.92 62.048 43.152 62.216 43.36 62.424C43.568 62.632 43.72 62.856 43.816 63.096C43.896 63.224 43.928 63.496 43.912 63.912C43.896 64.328 43.864 64.832 43.816 65.424C43.768 66.016 43.712 66.648 43.648 67.32C43.6 67.976 43.528 68.752 43.432 69.648C43.336 70.544 43.24 71.48 43.144 72.456C43.064 73.432 43 74.376 42.952 75.288C42.904 76.184 42.904 76.968 42.952 77.64C42.968 77.784 42.968 77.92 42.952 78.048C42.936 78.176 42.928 78.28 42.928 78.36C42.832 78.456 42.672 78.496 42.448 78.48C42.24 78.48 42.032 78.432 41.824 78.336C41.632 78.24 41.52 78.12 41.488 77.976C41.44 77.928 41.408 77.864 41.392 77.784C41.392 77.688 41.4 77.496 41.416 77.208C41.432 76.92 41.448 76.464 41.464 75.84L41.584 71.952L41.272 71.976C41.128 71.976 40.856 71.992 40.456 72.024C40.056 72.056 39.624 72.104 39.16 72.168C38.696 72.216 38.264 72.272 37.864 72.336C37.48 72.384 37.216 72.432 37.072 72.48C36.928 72.48 36.752 72.576 36.544 72.768C36.352 72.96 36.168 73.208 35.992 73.512C35.928 73.736 35.808 73.976 35.632 74.232C35.472 74.472 35.392 74.632 35.392 74.712C35.28 74.792 35.184 74.888 35.104 75C35.04 75.112 35.008 75.168 35.008 75.168C35.008 75.264 34.928 75.504 34.768 75.888C34.624 76.256 34.44 76.672 34.216 77.136C33.992 77.584 33.768 77.976 33.544 78.312L33.04 79.08L32.656 78.792ZM37.624 71.064C37.624 71.064 37.704 71.048 37.864 71.016C38.04 70.984 38.24 70.952 38.464 70.92C38.704 70.872 38.92 70.848 39.112 70.848C39.784 70.688 40.272 70.584 40.576 70.536C40.88 70.472 41.088 70.44 41.2 70.44C41.328 70.44 41.44 70.464 41.536 70.512C41.6 70.592 41.656 70.64 41.704 70.656C41.768 70.672 41.8 70.68 41.8 70.68C41.816 70.648 41.84 70.464 41.872 70.128C41.904 69.792 41.944 69.376 41.992 68.88C42.056 68.384 42.112 67.872 42.16 67.344C42.224 66.8 42.272 66.304 42.304 65.856C42.336 65.392 42.36 65.04 42.376 64.8C42.392 64.496 42.408 64.224 42.424 63.984C42.44 63.728 42.448 63.6 42.448 63.6C42.352 63.6 42.144 63.776 41.824 64.128C41.52 64.48 41.176 64.944 40.792 65.52C40.408 66.096 40.048 66.712 39.712 67.368C39.552 67.672 39.4 67.944 39.256 68.184C39.112 68.424 39 68.544 38.92 68.544C38.888 68.576 38.792 68.72 38.632 68.976C38.488 69.216 38.328 69.496 38.152 69.816C37.976 70.12 37.832 70.4 37.72 70.656C37.608 70.896 37.576 71.032 37.624 71.064ZM50.9485 77.952C50.8365 78.016 50.6845 77.992 50.4925 77.88C50.3165 77.768 50.1405 77.6 49.9645 77.376C49.8525 77.184 49.7725 76.976 49.7245 76.752C49.6925 76.528 49.6765 76.216 49.6765 75.816C49.6925 75.496 49.6765 75.288 49.6285 75.192C49.5965 75.096 49.5085 75.112 49.3645 75.24C49.2205 75.352 48.9725 75.584 48.6205 75.936C48.2205 76.336 47.8365 76.648 47.4685 76.872C47.1165 77.096 46.8285 77.2 46.6045 77.184C46.4925 77.184 46.3645 77.128 46.2205 77.016C46.0925 76.888 45.9725 76.736 45.8605 76.56C45.7485 76.368 45.6525 76.176 45.5725 75.984C45.4765 75.632 45.4605 75.184 45.5245 74.64C45.6045 74.08 45.7325 73.496 45.9085 72.888C46.0845 72.28 46.2845 71.704 46.5085 71.16C46.7485 70.616 46.9885 70.176 47.2285 69.84C47.4845 69.504 47.7085 69.336 47.9005 69.336C48.0285 69.336 48.1405 69.4 48.2365 69.528C48.3485 69.656 48.4605 69.856 48.5725 70.128C48.6365 70.24 48.6605 70.336 48.6445 70.416C48.6445 70.496 48.5805 70.592 48.4525 70.704C48.3085 70.896 48.1405 71.184 47.9485 71.568C47.7725 71.952 47.5965 72.368 47.4205 72.816C47.2605 73.264 47.1165 73.696 46.9885 74.112C46.8605 74.528 46.7725 74.872 46.7245 75.144C46.6765 75.4 46.6845 75.528 46.7485 75.528C46.9725 75.528 47.2365 75.44 47.5405 75.264C47.8605 75.072 48.1645 74.84 48.4525 74.568C48.7885 74.232 49.0845 73.864 49.3405 73.464C49.6125 73.064 49.8845 72.64 50.1565 72.192C50.3645 71.872 50.5805 71.52 50.8045 71.136C51.0445 70.752 51.1965 70.48 51.2605 70.32C51.4845 69.904 51.6525 69.624 51.7645 69.48C51.8765 69.32 52.0125 69.216 52.1725 69.168C52.2525 69.168 52.3245 69.168 52.3885 69.168C52.4685 69.168 52.5085 69.168 52.5085 69.168C52.6045 69.184 52.7165 69.256 52.8445 69.384C52.9725 69.448 53.0445 69.512 53.0605 69.576C53.0765 69.624 53.0845 69.688 53.0845 69.768C53.0205 69.928 52.9165 70.168 52.7725 70.488C52.6445 70.792 52.5485 71.016 52.4845 71.16C52.1805 71.848 51.8765 72.528 51.5725 73.2C51.2845 73.856 51.0765 74.528 50.9485 75.216C50.9165 75.44 50.9085 75.704 50.9245 76.008C50.9565 76.296 51.0045 76.504 51.0685 76.632C51.1165 76.728 51.1725 76.84 51.2365 76.968C51.3165 77.08 51.4045 77.176 51.5005 77.256C51.6445 77.352 51.6685 77.456 51.5725 77.568C51.4925 77.68 51.3805 77.776 51.2365 77.856C51.0925 77.92 50.9965 77.952 50.9485 77.952ZM50.6365 67.992C50.1405 68.056 49.7245 67.912 49.3885 67.56C49.0525 67.208 48.7965 66.688 48.6205 66C48.5885 65.872 48.5725 65.76 48.5725 65.664C48.5885 65.552 48.6205 65.456 48.6685 65.376C48.7005 65.312 48.7645 65.264 48.8605 65.232C48.9565 65.184 49.0365 65.176 49.1005 65.208C49.3245 65.288 49.4845 65.392 49.5805 65.52C49.6925 65.632 49.7645 65.776 49.7965 65.952C49.8285 66.032 49.8445 66.112 49.8445 66.192C49.8605 66.272 49.8685 66.304 49.8685 66.288C49.9485 66.544 50.0525 66.72 50.1805 66.816C50.3085 66.912 50.5005 66.904 50.7565 66.792C51.0285 66.68 51.2925 66.552 51.5485 66.408C51.8205 66.264 52.0605 66.088 52.2685 65.88C52.4445 65.704 52.6125 65.544 52.7725 65.4C52.9485 65.256 53.1165 65.104 53.2765 64.944L53.3005 64.92C53.3645 64.872 53.4445 64.856 53.5405 64.872C53.6365 64.888 53.6925 64.912 53.7085 64.944C53.8205 65.056 53.8765 65.168 53.8765 65.28C53.8765 65.392 53.8765 65.512 53.8765 65.64L53.8525 65.688C53.8845 65.784 53.8045 65.968 53.6125 66.24C53.4365 66.512 53.2205 66.744 52.9645 66.936C52.7405 67.112 52.5005 67.272 52.2445 67.416C51.9885 67.56 51.7245 67.696 51.4525 67.824C51.3405 67.888 51.2205 67.928 51.0925 67.944C50.9805 67.944 50.8285 67.96 50.6365 67.992ZM56.8523 77.88C56.7403 77.816 56.6203 77.752 56.4923 77.688C56.3803 77.624 56.2683 77.56 56.1563 77.496C56.0603 77.432 55.9723 77.368 55.8923 77.304C55.5563 77 55.3323 76.672 55.2203 76.32C55.1243 75.952 55.0923 75.6 55.1243 75.264C55.1563 74.928 55.2043 74.64 55.2683 74.4C55.3323 74.144 55.3643 73.968 55.3643 73.872C55.3483 73.744 55.3723 73.624 55.4363 73.512C55.5003 73.384 55.5643 73.256 55.6283 73.128C55.9163 72.568 56.1803 72.088 56.4203 71.688C56.6763 71.272 57.0443 70.792 57.5243 70.248C57.6203 70.168 57.7083 70.096 57.7883 70.032C57.8843 69.952 57.9803 69.896 58.0763 69.864L58.6283 70.272C58.6923 70.336 58.7323 70.416 58.7483 70.512C58.7643 70.592 58.7483 70.704 58.7003 70.848C58.6683 70.96 58.6283 71.072 58.5803 71.184C58.5483 71.28 58.5003 71.368 58.4363 71.448C58.1643 71.704 57.9483 71.992 57.7883 72.312C57.6283 72.616 57.4603 72.928 57.2843 73.248C57.2843 73.392 57.2283 73.512 57.1163 73.608C57.0043 73.688 56.9403 73.808 56.9243 73.968C56.9243 74.08 56.9083 74.192 56.8763 74.304C56.8443 74.416 56.8123 74.536 56.7803 74.664C56.6683 74.92 56.6203 75.168 56.6363 75.408C56.6523 75.648 56.6603 75.896 56.6603 76.152C56.7883 76.216 56.9003 76.256 56.9963 76.272C57.0923 76.272 57.2203 76.192 57.3803 76.032C57.7003 75.76 57.9243 75.52 58.0523 75.312C58.1963 75.104 58.3083 74.896 58.3883 74.688C58.4683 74.48 58.5803 74.24 58.7243 73.968C58.8843 73.696 59.0203 73.352 59.1323 72.936C59.2443 72.52 59.3243 72.128 59.3723 71.76C59.4203 71.376 59.4203 71.12 59.3723 70.992C59.3563 70.912 59.3643 70.816 59.3963 70.704C59.4283 70.592 59.3803 70.48 59.2523 70.368C59.3163 70.304 59.3483 70.184 59.3483 70.008C59.3483 69.832 59.3323 69.648 59.3003 69.456C59.2683 69.264 59.2203 69.128 59.1563 69.048C59.1243 68.408 59.1003 67.872 59.0843 67.44C59.0843 66.992 59.0923 66.608 59.1083 66.288C59.1403 65.952 59.1803 65.64 59.2283 65.352C59.2443 65.304 59.3403 65.144 59.5163 64.872C59.7083 64.584 59.8843 64.36 60.0443 64.2C60.3163 63.96 60.6843 63.776 61.1483 63.648C61.6283 63.504 62.0363 63.448 62.3723 63.48C62.3563 63.496 62.4523 63.504 62.6603 63.504C62.8843 63.504 63.1323 63.496 63.4043 63.48C63.6763 63.464 63.8763 63.448 64.0043 63.432C64.1323 63.4 64.2603 63.368 64.3883 63.336C64.5163 63.304 64.7323 63.2 65.0363 63.024C65.1643 62.944 65.2683 62.92 65.3483 62.952L65.9963 63.504C65.9803 63.952 65.8683 64.288 65.6603 64.512C65.4523 64.72 65.0523 64.856 64.4603 64.92C64.3643 64.92 64.2603 64.92 64.1483 64.92C64.0363 64.904 63.9243 64.912 63.8123 64.944C63.7163 64.976 63.6283 64.976 63.5483 64.944C63.4843 64.912 63.3883 64.896 63.2603 64.896C63.0843 64.896 62.9003 64.92 62.7083 64.968C62.5163 65 62.3163 64.992 62.1083 64.944C61.5323 65.104 61.0843 65.32 60.7643 65.592C60.4443 65.864 60.2843 66.312 60.2843 66.936C60.3483 67.528 60.4283 68.056 60.5243 68.52C60.6363 68.984 60.6923 69.496 60.6923 70.056C60.7243 70.2 60.7643 70.32 60.8123 70.416C60.8603 70.512 60.8363 70.616 60.7403 70.728C60.8203 71.096 60.8603 71.456 60.8603 71.808C60.8603 72.144 60.8123 72.4 60.7163 72.576C60.6843 72.688 60.6603 72.896 60.6443 73.2C60.6443 73.488 60.5643 73.792 60.4043 74.112C60.0363 74.864 59.6603 75.536 59.2763 76.128C58.8923 76.704 58.4043 77.192 57.8123 77.592C57.7003 77.656 57.5643 77.704 57.4043 77.736C57.2603 77.768 57.0763 77.816 56.8523 77.88ZM64.2591 77.64C64.0511 77.64 63.8831 77.6 63.7551 77.52C63.6431 77.44 63.4991 77.328 63.3231 77.184C63.0191 76.864 62.8031 76.56 62.6751 76.272C62.5471 75.968 62.5071 75.68 62.5551 75.408C62.6031 75.28 62.6191 75.16 62.6031 75.048C62.6031 74.92 62.6031 74.856 62.6031 74.856C62.5231 74.776 62.4991 74.728 62.5311 74.712C62.5631 74.68 62.5951 74.632 62.6271 74.568C62.7231 74.568 62.7551 74.48 62.7231 74.304C62.6911 74.176 62.7551 73.896 62.9151 73.464C63.0751 73.032 63.2751 72.624 63.5151 72.24C63.6111 72.08 63.7551 71.872 63.9471 71.616C64.1391 71.344 64.3471 71.08 64.5711 70.824C64.8111 70.552 65.0271 70.336 65.2191 70.176C65.6191 69.84 65.9711 69.592 66.2751 69.432C66.5791 69.272 66.9071 69.152 67.2591 69.072C67.6111 68.992 67.8511 68.952 67.9791 68.952C68.1231 68.952 68.3151 69.08 68.5551 69.336C68.9231 69.496 69.1871 69.688 69.3471 69.912C69.5231 70.136 69.6351 70.464 69.6831 70.896C69.7311 71.376 69.6911 71.928 69.5631 72.552C69.4511 73.16 69.0751 73.92 68.4351 74.832C68.0351 75.408 67.6671 75.84 67.3311 76.128C66.9951 76.4 66.5951 76.672 66.1311 76.944C65.7951 77.168 65.4911 77.336 65.2191 77.448C64.9471 77.544 64.6271 77.608 64.2591 77.64ZM66.5631 75.096C66.9471 74.664 67.2511 74.256 67.4751 73.872C67.7151 73.488 67.9391 73 68.1471 72.408C68.2111 72.232 68.2511 72.016 68.2671 71.76C68.2831 71.488 68.2751 71.24 68.2431 71.016C68.2271 70.776 68.1711 70.64 68.0751 70.608C67.8831 70.496 67.6511 70.464 67.3791 70.512C67.1071 70.544 66.8111 70.696 66.4911 70.968C65.9951 71.384 65.5631 71.904 65.1951 72.528C64.8271 73.136 64.4671 73.832 64.1151 74.616C63.8751 75.192 63.8191 75.656 63.9471 76.008C64.0911 76.344 64.3871 76.464 64.8351 76.368C65.2991 76.256 65.8751 75.832 66.5631 75.096ZM70.1633 77.544C70.0513 77.48 69.9313 77.44 69.8033 77.424C69.6913 77.408 69.5713 77.392 69.4433 77.376C69.3313 77.264 69.2353 77.152 69.1553 77.04C69.0913 76.912 69.0433 76.768 69.0113 76.608C68.9953 76.512 69.0113 76.424 69.0593 76.344C69.1073 76.264 69.1553 76.192 69.2033 76.128C69.2513 76.128 69.3073 76.136 69.3713 76.152C69.4353 76.152 69.4993 76.152 69.5633 76.152C69.8353 75.944 70.0753 75.72 70.2833 75.48C70.5073 75.224 70.7233 74.96 70.9313 74.688C71.1553 74.384 71.3553 74.08 71.5313 73.776C71.7073 73.456 71.8513 73.12 71.9633 72.768C72.0113 72.624 72.0433 72.48 72.0593 72.336C72.0753 72.176 72.1153 72.032 72.1793 71.904C72.2753 71.712 72.3473 71.52 72.3953 71.328C72.4593 71.12 72.5233 70.92 72.5873 70.728C72.3473 70.68 72.1633 70.648 72.0353 70.632C71.9233 70.6 71.8193 70.544 71.7233 70.464C71.6273 70.384 71.4913 70.264 71.3153 70.104C71.2993 69.88 71.3233 69.72 71.3873 69.624C71.4513 69.512 71.6033 69.424 71.8433 69.36C71.9393 69.328 72.0353 69.304 72.1313 69.288C72.2273 69.256 72.3233 69.24 72.4193 69.24C72.5953 69.224 72.7713 69.216 72.9473 69.216C73.1233 69.216 73.3073 69.224 73.4993 69.24C73.6273 69.256 73.7553 69.28 73.8833 69.312C74.0113 69.344 74.1393 69.376 74.2673 69.408C74.4113 69.456 74.5553 69.52 74.6993 69.6C74.8433 69.664 74.9873 69.72 75.1313 69.768C75.2433 69.784 75.3473 69.824 75.4433 69.888C75.5393 69.952 75.6433 70.024 75.7553 70.104C76.0433 70.28 76.2673 70.504 76.4273 70.776C76.5873 71.032 76.6673 71.32 76.6673 71.64C76.6673 72.136 76.5953 72.6 76.4513 73.032C76.3713 73.336 76.2833 73.64 76.1873 73.944C76.1073 74.248 76.0193 74.552 75.9233 74.856C75.8593 75.064 75.7953 75.264 75.7313 75.456C75.6673 75.648 75.6193 75.848 75.5873 76.056C75.5553 76.232 75.5313 76.416 75.5153 76.608C75.4993 76.8 75.4753 77 75.4433 77.208C75.3793 77.224 75.3153 77.24 75.2513 77.256C75.2033 77.272 75.1393 77.296 75.0593 77.328C74.8833 77.264 74.6993 77.2 74.5073 77.136C74.3153 77.056 74.1793 76.888 74.0993 76.632C74.0993 76.6 74.0993 76.568 74.0993 76.536C74.1153 76.488 74.1233 76.432 74.1233 76.368C74.1233 76.32 74.1233 76.272 74.1233 76.224C74.1233 76.176 74.1233 76.128 74.1233 76.08C74.1553 75.792 74.2033 75.512 74.2673 75.24C74.3313 74.952 74.4113 74.672 74.5073 74.4C74.6353 74.08 74.7393 73.768 74.8193 73.464C74.8993 73.144 74.9793 72.832 75.0593 72.528C75.1073 72.384 75.1393 72.24 75.1553 72.096C75.1873 71.936 75.2113 71.784 75.2273 71.64C75.2433 71.464 75.2033 71.264 75.1073 71.04C74.9473 70.912 74.7793 70.816 74.6033 70.752C74.4273 70.672 74.2353 70.616 74.0273 70.584C73.9953 70.696 73.9393 70.816 73.8593 70.944C73.8433 70.976 73.8353 71.024 73.8353 71.088C73.8353 71.136 73.8193 71.168 73.7873 71.184C73.6913 71.248 73.6273 71.336 73.5953 71.448C73.5793 71.544 73.5633 71.648 73.5473 71.76C73.5313 71.84 73.5073 71.92 73.4753 72C73.4433 72.08 73.4033 72.16 73.3553 72.24C73.2913 72.304 73.2513 72.392 73.2353 72.504C73.2193 72.6 73.2033 72.704 73.1873 72.816C73.1553 73.056 73.0993 73.288 73.0193 73.512C72.9393 73.736 72.8353 73.984 72.7073 74.256C72.6273 74.368 72.5553 74.488 72.4913 74.616C72.4273 74.728 72.3633 74.848 72.2993 74.976C72.2833 75.04 72.2513 75.104 72.2033 75.168C72.1553 75.216 72.1153 75.28 72.0833 75.36C72.0033 75.52 71.9153 75.688 71.8193 75.864C71.7233 76.024 71.6113 76.168 71.4833 76.296C71.2753 76.504 71.0673 76.72 70.8593 76.944C70.6673 77.168 70.4353 77.368 70.1633 77.544ZM84.4403 77.712C83.9123 77.52 83.5043 77.16 83.2163 76.632C82.9283 76.088 82.7443 75.56 82.6643 75.048C82.6483 75.048 82.6003 75.08 82.5203 75.144C82.4563 75.192 82.3763 75.272 82.2803 75.384C82.0563 75.608 81.7763 75.888 81.4403 76.224C81.1043 76.544 80.7523 76.832 80.3843 77.088C80.0323 77.328 79.6963 77.432 79.3763 77.4C79.2483 77.32 79.1123 77.232 78.9683 77.136C78.8403 77.024 78.7123 76.912 78.5843 76.8C78.5203 76.736 78.4643 76.672 78.4163 76.608C78.3843 76.544 78.3523 76.472 78.3203 76.392C78.1443 75.912 78.0483 75.488 78.0323 75.12C78.0163 74.736 78.0563 74.36 78.1523 73.992C78.2643 73.608 78.3923 73.184 78.5363 72.72C78.5523 72.672 78.6083 72.472 78.7043 72.12C78.8163 71.768 78.9443 71.368 79.0883 70.92C79.2323 70.472 79.3683 70.072 79.4963 69.72C79.6403 69.368 79.7443 69.16 79.8083 69.096C79.8563 69.096 79.9043 69.096 79.9523 69.096C80.0163 69.08 80.0723 69.072 80.1203 69.072C80.2803 69.072 80.4003 69.128 80.4803 69.24C80.5443 69.336 80.6243 69.408 80.7203 69.456C80.8323 69.504 80.9123 69.568 80.9603 69.648C81.0403 69.808 80.9843 70.152 80.7923 70.68C80.6003 71.192 80.3923 71.776 80.1683 72.432C79.9603 73.024 79.7843 73.624 79.6403 74.232C79.4963 74.824 79.4883 75.32 79.6163 75.72C79.7283 75.72 79.8803 75.624 80.0723 75.432C80.2803 75.224 80.4403 75.08 80.5523 75C80.7123 74.904 80.9203 74.72 81.1763 74.448C81.4483 74.16 81.7123 73.872 81.9683 73.584C82.2243 73.28 82.4003 73.048 82.4963 72.888C82.5603 72.792 82.6563 72.616 82.7843 72.36C82.9123 72.088 83.0403 71.8 83.1683 71.496C83.3123 71.176 83.4243 70.88 83.5043 70.608C83.6003 70.336 83.6403 70.144 83.6243 70.032C83.6083 69.872 83.6243 69.752 83.6723 69.672C83.7363 69.576 83.8323 69.488 83.9603 69.408C84.0403 69.408 84.1283 69.408 84.2243 69.408C84.3203 69.408 84.4083 69.416 84.4883 69.432C84.5843 69.544 84.6883 69.648 84.8003 69.744C84.9123 69.84 85.0243 69.944 85.1363 70.056C85.2163 70.36 85.1683 70.768 84.9923 71.28C84.8163 71.792 84.6403 72.344 84.4643 72.936C84.2883 73.528 84.1763 74.128 84.1283 74.736C84.0803 75.328 84.2403 75.848 84.6083 76.296C84.9443 76.152 85.2003 76.016 85.3763 75.888C85.5683 75.744 85.7523 75.6 85.9283 75.456C86.1043 75.296 86.3283 75.136 86.6003 74.976C86.7603 75.072 86.8803 75.264 86.9603 75.552C87.0403 75.84 87.0803 76.072 87.0803 76.248C87.0163 76.296 86.9523 76.344 86.8883 76.392C86.8403 76.424 86.8003 76.472 86.7683 76.536C86.6723 76.744 86.4803 76.952 86.1923 77.16C85.9043 77.368 85.6003 77.536 85.2803 77.664C84.9603 77.776 84.6803 77.792 84.4403 77.712ZM89.5124 76.824C89.3364 76.712 89.1764 76.568 89.0324 76.392C88.8884 76.2 88.8164 75.96 88.8164 75.672C88.8164 75.512 88.8484 75.24 88.9124 74.856C88.9764 74.472 89.0644 74.04 89.1764 73.56C89.2884 73.08 89.4004 72.632 89.5124 72.216C89.6724 71.928 89.8084 71.64 89.9204 71.352C90.0324 71.064 90.0884 70.888 90.0884 70.824C90.1204 70.632 90.1604 70.408 90.2084 70.152C90.2724 69.896 90.3364 69.664 90.4004 69.456C90.4644 69.248 90.5124 69.128 90.5444 69.096C90.6244 69.016 90.7204 68.968 90.8324 68.952C90.9444 68.92 91.0564 68.936 91.1684 69C91.2964 69.048 91.3924 69.152 91.4564 69.312C91.6324 69.504 91.7204 69.736 91.7204 70.008C91.7204 70.264 91.6324 70.648 91.4564 71.16C91.3124 71.48 91.1684 71.856 91.0244 72.288C90.8804 72.72 90.7524 73.12 90.6404 73.488C90.5444 73.84 90.4884 74.08 90.4724 74.208L89.9924 74.352C90.2644 74.096 90.5204 73.832 90.7604 73.56C91.0004 73.272 91.1764 73.048 91.2884 72.888C91.5604 72.52 91.7924 72.216 91.9844 71.976C92.1924 71.72 92.4564 71.416 92.7764 71.064C93.0964 70.696 93.4084 70.472 93.7124 70.392C94.0324 70.296 94.2804 70.248 94.4564 70.248C94.8084 70.312 95.0884 70.496 95.2964 70.8C95.5204 71.088 95.6644 71.52 95.7284 72.096C95.7284 72.32 95.7044 72.584 95.6564 72.888C95.6244 73.192 95.6084 73.344 95.6084 73.344C95.6084 73.344 95.7364 73.176 95.9924 72.84C96.2644 72.504 96.6244 72.136 97.0724 71.736C97.3764 71.512 97.6724 71.384 97.9604 71.352C98.2484 71.304 98.5044 71.4 98.7284 71.64C99.1444 71.864 99.4164 72.208 99.5444 72.672C99.6724 73.12 99.7044 73.696 99.6404 74.4C99.5924 74.816 99.5844 75.128 99.6164 75.336C99.6484 75.528 99.6964 75.72 99.7604 75.912C99.8884 75.976 99.9124 76.112 99.8324 76.32C99.7524 76.512 99.6564 76.608 99.5444 76.608C99.3844 76.608 99.2004 76.576 98.9924 76.512C98.8004 76.448 98.6244 76.344 98.4644 76.2C98.3204 76.04 98.2484 75.824 98.2484 75.552V74.064C98.2484 73.712 98.2324 73.424 98.2004 73.2C98.1844 72.976 98.1444 72.84 98.0804 72.792C97.9044 72.696 97.6484 72.8 97.3124 73.104C96.9764 73.408 96.6164 73.816 96.2324 74.328C95.8484 74.84 95.4884 75.368 95.1524 75.912C94.8484 76.408 94.6564 76.696 94.5764 76.776C94.5124 76.84 94.3924 76.816 94.2164 76.704C93.8644 76.592 93.6404 76.44 93.5444 76.248C93.4644 76.04 93.4564 75.808 93.5204 75.552C93.6004 75.28 93.6964 74.912 93.8084 74.448C93.9364 73.984 94.0564 73.536 94.1684 73.104C94.2804 72.656 94.3524 72.336 94.3844 72.144C94.3204 72.016 94.2084 71.976 94.0484 72.024C93.9044 72.056 93.7524 72.128 93.5924 72.24C93.4004 72.368 93.1684 72.608 92.8964 72.96C92.6244 73.312 92.3444 73.72 92.0564 74.184C91.8644 74.488 91.6644 74.792 91.4564 75.096C91.2484 75.384 91.0564 75.64 90.8804 75.864C90.7044 76.088 90.5524 76.256 90.4244 76.368C90.2004 76.72 90.0484 76.912 89.9684 76.944C89.8884 76.976 89.7364 76.936 89.5124 76.824Z" fill="black"/>
</svg>
