<svg width="209" height="36" viewBox="0 0 209 36" fill="none" xmlns="http://www.w3.org/2000/svg">
<path d="M77.8505 34L74.7545 26.044H64.5665L61.5065 34H58.2305L68.2745 8.188H71.1905L81.1985 34H77.8505ZM70.9025 15.388C70.8305 15.196 70.7105 14.848 70.5425 14.344C70.3745 13.84 70.2065 13.324 70.0385 12.796C69.8945 12.244 69.7745 11.824 69.6785 11.536C69.5585 12.016 69.4265 12.508 69.2825 13.012C69.1625 13.492 69.0305 13.936 68.8865 14.344C68.7665 14.752 68.6585 15.1 68.5625 15.388L65.6465 23.164H73.7825L70.9025 15.388ZM99.9067 6.712C99.8107 7.912 99.5107 8.92 99.0067 9.736C98.5267 10.552 97.8067 11.164 96.8467 11.572C95.8867 11.98 94.6387 12.184 93.1027 12.184C91.5427 12.184 90.2827 11.98 89.3227 11.572C88.3867 11.164 87.7027 10.564 87.2707 9.772C86.8387 8.956 86.5747 7.936 86.4787 6.712H89.4307C89.5507 8.008 89.8867 8.884 90.4387 9.34C91.0147 9.772 91.9267 9.988 93.1747 9.988C94.2787 9.988 95.1427 9.76 95.7667 9.304C96.4147 8.824 96.7987 7.96 96.9187 6.712H99.9067ZM87.2707 26.476C87.2707 26.692 87.2587 27.004 87.2347 27.412C87.2347 27.796 87.2227 28.216 87.1987 28.672C87.1747 29.104 87.1507 29.524 87.1267 29.932C87.1027 30.316 87.0787 30.628 87.0547 30.868L97.3867 14.704H101.275V34H98.3227V22.624C98.3227 22.24 98.3227 21.736 98.3227 21.112C98.3467 20.488 98.3707 19.876 98.3947 19.276C98.4187 18.652 98.4427 18.184 98.4667 17.872L88.2067 34H84.2827V14.704H87.2707V26.476ZM106.407 22.408C106.407 19.6 106.683 17.212 107.235 15.244C107.811 13.252 108.687 11.668 109.863 10.492C111.063 9.292 112.599 8.488 114.471 8.08C116.031 7.744 117.555 7.444 119.043 7.18C120.531 6.916 121.923 6.676 123.219 6.46L123.759 9.232C123.135 9.328 122.439 9.448 121.671 9.592C120.903 9.712 120.123 9.844 119.331 9.988C118.539 10.108 117.771 10.24 117.027 10.384C116.307 10.504 115.671 10.624 115.119 10.744C114.327 10.912 113.619 11.2 112.995 11.608C112.371 11.992 111.831 12.52 111.375 13.192C110.943 13.864 110.595 14.692 110.331 15.676C110.067 16.66 109.911 17.824 109.863 19.168H110.079C110.415 18.712 110.871 18.244 111.447 17.764C112.047 17.284 112.755 16.876 113.571 16.54C114.411 16.204 115.359 16.036 116.415 16.036C118.095 16.036 119.487 16.408 120.591 17.152C121.719 17.872 122.559 18.88 123.111 20.176C123.687 21.472 123.975 22.984 123.975 24.712C123.975 26.848 123.603 28.636 122.859 30.076C122.115 31.516 121.083 32.596 119.763 33.316C118.443 34.012 116.907 34.36 115.155 34.36C113.835 34.36 112.635 34.108 111.555 33.604C110.475 33.076 109.551 32.308 108.783 31.3C108.015 30.292 107.427 29.044 107.019 27.556C106.611 26.068 106.407 24.352 106.407 22.408ZM115.407 31.732C116.463 31.732 117.375 31.516 118.143 31.084C118.935 30.652 119.547 29.944 119.979 28.96C120.411 27.976 120.627 26.668 120.627 25.036C120.627 23.068 120.255 21.52 119.511 20.392C118.791 19.24 117.591 18.664 115.911 18.664C114.855 18.664 113.895 18.904 113.031 19.384C112.167 19.84 111.447 20.368 110.871 20.968C110.295 21.568 109.887 22.072 109.647 22.48C109.647 23.656 109.731 24.796 109.899 25.9C110.067 27.004 110.355 28 110.763 28.888C111.195 29.752 111.783 30.448 112.527 30.976C113.295 31.48 114.255 31.732 115.407 31.732ZM145.742 24.316C145.742 25.924 145.526 27.352 145.094 28.6C144.686 29.824 144.086 30.868 143.294 31.732C142.526 32.596 141.578 33.256 140.45 33.712C139.346 34.144 138.11 34.36 136.742 34.36C135.47 34.36 134.294 34.144 133.214 33.712C132.134 33.256 131.198 32.596 130.406 31.732C129.614 30.868 128.99 29.824 128.534 28.6C128.102 27.352 127.886 25.924 127.886 24.316C127.886 22.18 128.246 20.38 128.966 18.916C129.686 17.428 130.718 16.3 132.062 15.532C133.406 14.74 135.002 14.344 136.85 14.344C138.602 14.344 140.138 14.74 141.458 15.532C142.802 16.3 143.846 17.428 144.59 18.916C145.358 20.38 145.742 22.18 145.742 24.316ZM131.162 24.316C131.162 25.828 131.354 27.148 131.738 28.276C132.146 29.38 132.77 30.232 133.61 30.832C134.45 31.432 135.518 31.732 136.814 31.732C138.11 31.732 139.178 31.432 140.018 30.832C140.858 30.232 141.47 29.38 141.854 28.276C142.262 27.148 142.466 25.828 142.466 24.316C142.466 22.78 142.262 21.472 141.854 20.392C141.446 19.312 140.822 18.484 139.982 17.908C139.166 17.308 138.098 17.008 136.778 17.008C134.81 17.008 133.382 17.656 132.494 18.952C131.606 20.248 131.162 22.036 131.162 24.316ZM165.451 34H162.247V17.332H156.559C156.319 20.38 156.019 22.984 155.659 25.144C155.299 27.28 154.843 29.02 154.291 30.364C153.739 31.708 153.079 32.692 152.311 33.316C151.543 33.94 150.643 34.252 149.611 34.252C149.299 34.252 148.987 34.228 148.675 34.18C148.387 34.156 148.147 34.096 147.955 34V31.624C148.099 31.672 148.255 31.708 148.423 31.732C148.591 31.756 148.759 31.768 148.927 31.768C149.455 31.768 149.935 31.552 150.367 31.12C150.799 30.688 151.183 30.028 151.519 29.14C151.879 28.252 152.203 27.136 152.491 25.792C152.779 24.424 153.031 22.816 153.247 20.968C153.463 19.12 153.655 17.032 153.823 14.704H165.451V34ZM174.564 26.476C174.564 26.692 174.552 27.004 174.528 27.412C174.528 27.796 174.516 28.216 174.492 28.672C174.468 29.104 174.444 29.524 174.42 29.932C174.396 30.316 174.372 30.628 174.348 30.868L184.68 14.704H188.568V34H185.616V22.624C185.616 22.24 185.616 21.736 185.616 21.112C185.64 20.488 185.664 19.876 185.688 19.276C185.712 18.652 185.736 18.184 185.76 17.872L175.5 34H171.576V14.704H174.564V26.476ZM208.028 17.368H201.728V34H198.596V17.368H192.368V14.704H208.028V17.368Z" fill="black"/>
<g clip-path="url(#clip0_922_222)">
<path d="M17.9986 5.53472L35.5997 0.349121L30.464 18.0001L35.5997 35.6012L17.9986 30.4655L0.347656 35.6012L5.53325 18.0001L0.347656 0.349121L17.9986 5.53472Z" fill="black"/>
</g>
<defs>
<clipPath id="clip0_922_222">
<rect width="36" height="36" fill="white"/>
</clipPath>
</defs>
</svg>
